<svg width="976" height="202" viewBox="0 0 976 202" fill="none" xmlns="http://www.w3.org/2000/svg">
<path d="M151.658 44.4788C151.658 58.0788 145.658 69.1121 133.658 77.5788C121.658 86.0454 107.258 90.2788 90.4581 90.2788C86.0581 90.2788 82.6914 90.1121 80.3581 89.7788C78.0247 89.4454 75.3914 89.0121 72.4581 88.4788L64.6581 120.879C64.3914 121.945 64.1581 123.179 63.9581 124.579C63.7581 125.979 63.6581 127.012 63.6581 127.679C63.6581 130.479 64.4247 132.645 65.9581 134.179C67.4914 135.712 71.8581 136.879 79.0581 137.679C79.3247 137.679 79.5581 138.145 79.7581 139.079C79.9581 140.012 80.0581 140.679 80.0581 141.079C80.0581 142.012 79.8247 143.145 79.3581 144.479C78.8914 145.812 78.3247 146.479 77.6581 146.479C71.2581 146.479 64.5247 146.312 57.4581 145.979C50.3914 145.645 44.2581 145.479 39.0581 145.479C33.8581 145.479 27.7914 145.645 20.8581 145.979C13.9247 146.312 7.45805 146.479 1.45805 146.479C1.32472 146.479 1.12472 146.145 0.85805 145.479C0.591383 144.812 0.45805 144.012 0.45805 143.079C0.45805 142.145 0.724717 141.045 1.25805 139.779C1.79138 138.512 2.32472 137.812 2.85805 137.679C12.7247 136.479 18.6247 134.679 20.5581 132.279C22.4914 129.879 23.9914 126.079 25.0581 120.879L46.0581 33.0788C46.3247 31.8788 46.5581 30.7121 46.7581 29.5788C46.9581 28.4454 47.0581 27.3454 47.0581 26.2788C47.0581 23.3454 46.3581 21.1788 44.9581 19.7788C43.5581 18.3787 39.1247 17.2121 31.6581 16.2788C31.2581 16.1454 30.9914 15.6454 30.8581 14.7788C30.7247 13.9121 30.6581 13.2788 30.6581 12.8788C30.6581 11.9454 30.8914 10.8121 31.3581 9.47876C31.8247 8.14542 32.3247 7.47875 32.8581 7.47875C39.3914 7.47875 45.2914 7.64541 50.5581 7.97875C55.8247 8.31208 60.9914 8.47875 66.0581 8.47875C71.2581 8.47875 76.4914 8.31208 81.7581 7.97875C87.0247 7.64541 92.9247 7.47875 99.4581 7.47875C115.991 7.47875 128.825 10.7788 137.958 17.3788C147.091 23.9788 151.658 33.0121 151.658 44.4788ZM111.458 38.8787C111.458 31.8121 109.991 26.4454 107.058 22.7787C104.125 19.1121 100.858 17.2788 97.2581 17.2788C93.7914 17.2788 91.4247 18.0121 90.1581 19.4787C88.8914 20.9454 87.7247 23.8121 86.6581 28.0788L76.0581 72.8788C75.2581 75.5454 75.4247 77.5121 76.5581 78.7788C77.6914 80.0454 79.9914 80.6788 83.4581 80.6788C93.4581 80.6788 100.625 76.8121 104.958 69.0788C109.291 61.3454 111.458 51.2788 111.458 38.8787ZM249.016 59.8788L223.416 118.279C222.216 121.079 221.349 123.245 220.816 124.779C220.283 126.312 220.016 127.412 220.016 128.079C220.016 129.012 220.149 129.645 220.416 129.979C220.683 130.312 221.083 130.479 221.616 130.479C224.416 130.479 227.316 128.912 230.316 125.779C233.316 122.645 235.283 121.079 236.216 121.079C237.283 121.079 238.349 121.779 239.416 123.179C240.483 124.579 241.016 125.545 241.016 126.079C241.016 128.612 236.616 133.179 227.816 139.779C219.016 146.379 211.083 149.679 204.016 149.679C198.549 149.679 194.416 148.645 191.616 146.579C188.816 144.512 187.416 141.545 187.416 137.679C187.416 134.479 187.749 131.845 188.416 129.779C189.083 127.712 190.083 125.279 191.416 122.479C185.416 131.012 179.383 137.679 173.316 142.479C167.249 147.279 160.549 149.679 153.216 149.679C146.949 149.679 141.949 147.479 138.216 143.079C134.483 138.679 132.616 132.945 132.616 125.879C132.616 111.745 140.849 96.4788 157.316 80.0788C173.783 63.6788 188.483 55.4788 201.416 55.4788C205.283 55.4788 208.616 56.4788 211.416 58.4788C214.216 60.4788 215.616 63.2121 215.616 66.6788L219.216 57.8788C219.483 57.0788 221.149 56.4788 224.216 56.0788C227.283 55.6788 230.416 55.4788 233.616 55.4788C237.616 55.4788 241.316 55.9788 244.716 56.9788C248.116 57.9788 249.549 58.9454 249.016 59.8788ZM210.216 72.4788C210.216 70.8788 209.949 69.7121 209.416 68.9788C208.883 68.2454 208.083 67.8788 207.016 67.8788C204.616 67.8788 201.016 69.9788 196.216 74.1788C191.416 78.3788 186.349 83.7454 181.016 90.2788C176.216 96.1454 171.916 102.479 168.116 109.279C164.316 116.079 162.416 121.612 162.416 125.879C162.416 128.012 162.883 129.512 163.816 130.379C164.749 131.245 166.216 131.679 168.216 131.679C173.416 131.679 181.716 123.645 193.116 107.579C204.516 91.5121 210.216 79.8121 210.216 72.4788ZM355.227 59.8788C355.227 66.4121 351.86 77.4788 345.127 93.0788C338.393 108.679 329.96 124.479 319.827 140.479C309.293 156.879 298.327 171.112 286.927 183.179C275.527 195.245 264.56 201.279 254.027 201.279C244.427 201.279 237.16 199.379 232.227 195.579C227.293 191.779 224.827 187.679 224.827 183.279C224.827 179.012 225.993 175.312 228.327 172.179C230.66 169.045 234.627 167.479 240.227 167.479C243.427 167.479 246.16 168.612 248.427 170.879C250.693 173.145 252.627 175.412 254.227 177.679C255.56 179.812 257.193 182.045 259.127 184.379C261.06 186.712 262.893 187.879 264.627 187.879C268.493 187.879 272.56 183.245 276.827 173.979C281.093 164.712 283.227 151.279 283.227 133.679C283.227 116.345 281.893 102.512 279.227 92.1788C276.56 81.8454 273.827 76.6788 271.027 76.6788C267.96 76.6788 265.427 79.0121 263.427 83.6788C261.427 88.3454 259.96 90.6788 259.027 90.6788C257.693 90.6788 256.16 90.1454 254.427 89.0788C252.693 88.0121 251.827 87.1454 251.827 86.4788C251.827 80.4788 255.66 73.5788 263.327 65.7788C270.993 57.9788 279.027 54.0788 287.427 54.0788C290.76 54.0788 293.86 55.1788 296.727 57.3788C299.593 59.5788 302.093 63.0788 304.227 67.8788C306.627 73.0788 308.46 79.3121 309.727 86.5788C310.993 93.8454 311.627 103.545 311.627 115.679C311.627 117.945 311.627 120.579 311.627 123.579C311.627 126.579 311.493 130.212 311.227 134.479C318.96 120.879 324.293 107.812 327.227 95.2788C330.16 82.7454 332.093 71.7454 333.027 62.2788C333.293 58.8121 334.86 56.5788 337.727 55.5788C340.593 54.5788 342.427 54.0788 343.227 54.0788C345.493 54.0788 348.06 54.5788 350.927 55.5788C353.793 56.5788 355.227 58.0121 355.227 59.8788ZM520.458 62.8788C520.458 86.4788 511.191 106.245 492.658 122.179C474.125 138.112 452.258 146.079 427.058 146.079C422.925 146.079 417.558 145.979 410.958 145.779C404.358 145.579 398.925 145.479 394.658 145.479C389.058 145.479 381.891 145.612 373.158 145.879C364.425 146.145 357.725 146.345 353.058 146.479C352.658 146.479 352.358 146.212 352.158 145.679C351.958 145.145 351.858 144.545 351.858 143.879C351.858 142.945 352.258 141.712 353.058 140.179C353.858 138.645 354.525 137.812 355.058 137.679C362.925 136.745 367.958 134.945 370.158 132.279C372.358 129.612 373.991 125.812 375.058 120.879L395.858 33.8788C396.125 32.6788 396.358 31.5121 396.558 30.3788C396.758 29.2454 396.858 28.1454 396.858 27.0788C396.858 24.1454 396.225 21.9788 394.958 20.5788C393.691 19.1788 389.458 18.0121 382.258 17.0788C381.991 16.9454 381.758 16.4454 381.558 15.5788C381.358 14.7121 381.258 14.0788 381.258 13.6788C381.258 12.2121 381.591 10.9454 382.258 9.87875C382.925 8.81208 383.591 8.27875 384.258 8.27875C388.925 8.41208 394.958 8.47875 402.358 8.47875C409.758 8.47875 416.191 8.47875 421.658 8.47875C426.058 8.47875 431.191 8.37875 437.058 8.17876C442.925 7.97876 447.858 7.87876 451.858 7.87876C476.391 7.87876 493.958 13.2454 504.558 23.9788C515.158 34.7121 520.458 47.6788 520.458 62.8788ZM482.258 55.6788C482.258 46.3454 479.891 37.6787 475.158 29.6787C470.425 21.6787 462.058 17.6787 450.058 17.6787L447.458 17.8788C444.791 17.8788 442.558 18.6454 440.758 20.1788C438.958 21.7121 437.458 24.8788 436.258 29.6787L413.858 124.279C412.658 129.079 412.625 132.245 413.758 133.779C414.891 135.312 416.791 136.079 419.458 136.079L424.658 136.279C441.858 136.279 455.758 128.212 466.358 112.079C476.958 95.9454 482.258 77.1454 482.258 55.6788ZM634.758 59.8788L609.158 118.279C607.958 121.079 607.091 123.245 606.558 124.779C606.025 126.312 605.758 127.412 605.758 128.079C605.758 129.012 605.891 129.645 606.158 129.979C606.425 130.312 606.825 130.479 607.358 130.479C610.158 130.479 613.058 128.912 616.058 125.779C619.058 122.645 621.025 121.079 621.958 121.079C623.025 121.079 624.091 121.779 625.158 123.179C626.225 124.579 626.758 125.545 626.758 126.079C626.758 128.612 622.358 133.179 613.558 139.779C604.758 146.379 596.825 149.679 589.758 149.679C584.291 149.679 580.158 148.645 577.358 146.579C574.558 144.512 573.158 141.545 573.158 137.679C573.158 134.479 573.491 131.845 574.158 129.779C574.825 127.712 575.825 125.279 577.158 122.479C571.158 131.012 565.125 137.679 559.058 142.479C552.991 147.279 546.291 149.679 538.958 149.679C532.691 149.679 527.691 147.479 523.958 143.079C520.225 138.679 518.358 132.945 518.358 125.879C518.358 111.745 526.591 96.4788 543.058 80.0788C559.525 63.6788 574.225 55.4788 587.158 55.4788C591.025 55.4788 594.358 56.4788 597.158 58.4788C599.958 60.4788 601.358 63.2121 601.358 66.6788L604.958 57.8788C605.225 57.0788 606.891 56.4788 609.958 56.0788C613.025 55.6788 616.158 55.4788 619.358 55.4788C623.358 55.4788 627.058 55.9788 630.458 56.9788C633.858 57.9788 635.291 58.9454 634.758 59.8788ZM595.958 72.4788C595.958 70.8788 595.691 69.7121 595.158 68.9788C594.625 68.2454 593.825 67.8788 592.758 67.8788C590.358 67.8788 586.758 69.9788 581.958 74.1788C577.158 78.3788 572.091 83.7454 566.758 90.2788C561.958 96.1454 557.658 102.479 553.858 109.279C550.058 116.079 548.158 121.612 548.158 125.879C548.158 128.012 548.625 129.512 549.558 130.379C550.491 131.245 551.958 131.679 553.958 131.679C559.158 131.679 567.458 123.645 578.858 107.579C590.258 91.5121 595.958 79.8121 595.958 72.4788ZM767.616 2.47875C767.616 3.14542 767.516 3.94542 767.316 4.87876C767.116 5.81209 766.816 6.74542 766.416 7.67876L728.416 114.079C727.749 115.812 726.949 118.045 726.016 120.779C725.083 123.512 724.616 125.412 724.616 126.479C724.616 127.412 724.749 128.179 725.016 128.779C725.283 129.379 725.883 129.679 726.816 129.679C729.216 129.679 731.716 127.679 734.316 123.679C736.916 119.679 738.616 117.679 739.416 117.679C740.349 117.679 741.349 118.379 742.416 119.779C743.483 121.179 744.016 122.145 744.016 122.679C744.016 125.079 740.649 130.179 733.916 137.979C727.183 145.779 720.083 149.679 712.616 149.679C707.683 149.679 703.983 148.479 701.516 146.079C699.049 143.679 697.816 140.212 697.816 135.679C697.816 133.145 698.183 130.512 698.916 127.779C699.649 125.045 700.749 121.945 702.216 118.479C696.749 127.679 690.949 135.179 684.816 140.979C678.683 146.779 671.283 149.679 662.616 149.679C655.016 149.679 648.949 147.145 644.416 142.079C639.883 137.012 637.616 130.212 637.616 121.679C637.616 105.012 644.516 89.5788 658.316 75.3788C672.116 61.1788 686.483 54.0788 701.416 54.0788C705.416 54.0788 708.549 54.7121 710.816 55.9788C713.083 57.2454 714.616 58.4788 715.416 59.6788L724.416 34.2787C725.083 32.4121 725.616 30.7121 726.016 29.1787C726.416 27.6454 726.616 26.3454 726.616 25.2788C726.616 23.8121 725.849 22.7788 724.316 22.1788C722.783 21.5788 719.949 21.0121 715.816 20.4788C715.416 20.3454 715.049 19.7788 714.716 18.7788C714.383 17.7788 714.216 16.9454 714.216 16.2788C714.216 15.6121 714.349 14.7788 714.616 13.7788C714.883 12.7788 715.283 12.2788 715.816 12.2788C722.483 11.2121 730.716 9.54542 740.516 7.27875C750.316 5.01209 757.016 3.14542 760.616 1.67875C761.016 1.41209 761.783 1.11209 762.916 0.778757C764.049 0.445424 764.949 0.278758 765.616 0.278758C766.149 0.278758 766.616 0.51209 767.016 0.978755C767.416 1.44542 767.616 1.94542 767.616 2.47875ZM711.416 70.6788C711.416 68.6788 711.016 67.2454 710.216 66.3788C709.416 65.5121 708.149 65.0788 706.416 65.0788C698.016 65.0788 689.849 71.4454 681.916 84.1788C673.983 96.9121 670.016 110.079 670.016 123.679C670.016 126.879 670.583 129.245 671.716 130.779C672.849 132.312 674.349 133.079 676.216 133.079C679.149 133.079 682.649 130.645 686.716 125.779C690.783 120.912 694.749 114.679 698.616 107.079C702.616 99.0788 705.749 92.0121 708.016 85.8788C710.283 79.7454 711.416 74.6788 711.416 70.6788ZM885.975 2.47875C885.975 3.14542 885.875 3.94542 885.675 4.87876C885.475 5.81209 885.175 6.74542 884.775 7.67876L846.775 114.079C846.109 115.812 845.309 118.045 844.375 120.779C843.442 123.512 842.975 125.412 842.975 126.479C842.975 127.412 843.109 128.179 843.375 128.779C843.642 129.379 844.242 129.679 845.175 129.679C847.575 129.679 850.075 127.679 852.675 123.679C855.275 119.679 856.975 117.679 857.775 117.679C858.709 117.679 859.709 118.379 860.775 119.779C861.842 121.179 862.375 122.145 862.375 122.679C862.375 125.079 859.009 130.179 852.275 137.979C845.542 145.779 838.442 149.679 830.975 149.679C826.042 149.679 822.342 148.479 819.875 146.079C817.409 143.679 816.175 140.212 816.175 135.679C816.175 133.145 816.542 130.512 817.275 127.779C818.009 125.045 819.109 121.945 820.575 118.479C815.109 127.679 809.309 135.179 803.175 140.979C797.042 146.779 789.642 149.679 780.975 149.679C773.375 149.679 767.309 147.145 762.775 142.079C758.242 137.012 755.975 130.212 755.975 121.679C755.975 105.012 762.875 89.5788 776.675 75.3788C790.475 61.1788 804.842 54.0788 819.775 54.0788C823.775 54.0788 826.909 54.7121 829.175 55.9788C831.442 57.2454 832.975 58.4788 833.775 59.6788L842.775 34.2787C843.442 32.4121 843.975 30.7121 844.375 29.1787C844.775 27.6454 844.975 26.3454 844.975 25.2788C844.975 23.8121 844.209 22.7788 842.675 22.1788C841.142 21.5788 838.309 21.0121 834.175 20.4788C833.775 20.3454 833.409 19.7788 833.075 18.7788C832.742 17.7788 832.575 16.9454 832.575 16.2788C832.575 15.6121 832.709 14.7788 832.975 13.7788C833.242 12.7788 833.642 12.2788 834.175 12.2788C840.842 11.2121 849.075 9.54542 858.875 7.27875C868.675 5.01209 875.375 3.14542 878.975 1.67875C879.375 1.41209 880.142 1.11209 881.275 0.778757C882.409 0.445424 883.309 0.278758 883.975 0.278758C884.509 0.278758 884.975 0.51209 885.375 0.978755C885.775 1.44542 885.975 1.94542 885.975 2.47875ZM829.775 70.6788C829.775 68.6788 829.375 67.2454 828.575 66.3788C827.775 65.5121 826.509 65.0788 824.775 65.0788C816.375 65.0788 808.209 71.4454 800.275 84.1788C792.342 96.9121 788.375 110.079 788.375 123.679C788.375 126.879 788.942 129.245 790.075 130.779C791.209 132.312 792.709 133.079 794.575 133.079C797.509 133.079 801.009 130.645 805.075 125.779C809.142 120.912 813.109 114.679 816.975 107.079C820.975 99.0788 824.109 92.0121 826.375 85.8788C828.642 79.7454 829.775 74.6788 829.775 70.6788ZM975.735 59.8788C975.735 66.4121 972.368 77.4788 965.635 93.0788C958.901 108.679 950.468 124.479 940.335 140.479C929.801 156.879 918.835 171.112 907.435 183.179C896.035 195.245 885.068 201.279 874.535 201.279C864.935 201.279 857.668 199.379 852.735 195.579C847.801 191.779 845.335 187.679 845.335 183.279C845.335 179.012 846.501 175.312 848.835 172.179C851.168 169.045 855.135 167.479 860.735 167.479C863.935 167.479 866.668 168.612 868.935 170.879C871.201 173.145 873.135 175.412 874.735 177.679C876.068 179.812 877.701 182.045 879.635 184.379C881.568 186.712 883.401 187.879 885.135 187.879C889.001 187.879 893.068 183.245 897.335 173.979C901.601 164.712 903.735 151.279 903.735 133.679C903.735 116.345 902.401 102.512 899.735 92.1788C897.068 81.8454 894.335 76.6788 891.535 76.6788C888.468 76.6788 885.935 79.0121 883.935 83.6788C881.935 88.3454 880.468 90.6788 879.535 90.6788C878.201 90.6788 876.668 90.1454 874.935 89.0788C873.201 88.0121 872.335 87.1454 872.335 86.4788C872.335 80.4788 876.168 73.5788 883.835 65.7788C891.501 57.9788 899.535 54.0788 907.935 54.0788C911.268 54.0788 914.368 55.1788 917.235 57.3788C920.101 59.5788 922.601 63.0788 924.735 67.8788C927.135 73.0788 928.968 79.3121 930.235 86.5788C931.501 93.8454 932.135 103.545 932.135 115.679C932.135 117.945 932.135 120.579 932.135 123.579C932.135 126.579 932.001 130.212 931.735 134.479C939.468 120.879 944.801 107.812 947.735 95.2788C950.668 82.7454 952.601 71.7454 953.535 62.2788C953.801 58.8121 955.368 56.5788 958.235 55.5788C961.101 54.5788 962.935 54.0788 963.735 54.0788C966.001 54.0788 968.568 54.5788 971.435 55.5788C974.301 56.5788 975.735 58.0121 975.735 59.8788Z" fill="white"/>
</svg>
